<?xml version="1.0" encoding="utf-8"?>
<!-- Generator: Adobe Illustrator 24.0.0, SVG Export Plug-In . SVG Version: 6.00 Build 0)  -->
<svg version="1.1" id="图层_1" xmlns="http://www.w3.org/2000/svg" xmlns:xlink="http://www.w3.org/1999/xlink" x="0px" y="0px"
	 viewBox="0 0 30 30" style="enable-background:new 0 0 30 30;" xml:space="preserve">
<style type="text/css">
	.st0{fill:#409EFF;}
</style>
<title>Shape Copy</title>
<desc>Created with Sketch.</desc>
<path class="st0" d="M23.4,5.6l-9.2-5.3C13.8,0,13.4,0,13,0.2L3.8,5.5c-0.4,0.2-0.6,0.6-0.6,1l0,10.6c0,0.4,0.2,0.8,0.6,1l9.2,5.3
	c0.4,0.2,0.8,0.2,1.2,0l9.2-5.3c0.4-0.2,0.6-0.6,0.6-1l0-10.6C24,6.1,23.8,5.8,23.4,5.6z M6.5,15.2L11,11c0.1-0.1,0.1-0.2,0-0.2
	L6,6.6C5.9,6.5,6,6.4,6.1,6.4l2.5-0.1c0,0,0.1,0,0.1,0l3.8,3.1c0.1,0,0.1,0,0.2,0l3-2.7c0,0,0.1,0,0.1,0l2.7,0
	c0.1,0,0.2,0.2,0.1,0.3l-9.2,8.5c0,0-0.1,0-0.1,0l-2.7,0C6.5,15.5,6.4,15.3,6.5,15.2z M21.1,17.5l-2.5,0c0,0-0.1,0-0.1,0l-3.3-2.9
	c-0.1-0.1-0.2-0.1-0.2,0l-3,2.8c0,0-0.1,0-0.1,0l-2.7,0c-0.1,0-0.2-0.2-0.1-0.3l9.2-8.5c0,0,0.1,0,0.1,0l2.7,0
	c0.1,0,0.2,0.2,0.1,0.3L16.7,13c-0.1,0.1-0.1,0.2,0,0.2l4.5,3.9C21.3,17.3,21.2,17.5,21.1,17.5z"/>
</svg>
