<?xml version="1.0" encoding="utf-8"?>
<!-- Generator: Adobe Illustrator 24.0.0, SVG Export Plug-In . SVG Version: 6.00 Build 0)  -->
<svg version="1.1" id="图层_1" xmlns="http://www.w3.org/2000/svg" xmlns:xlink="http://www.w3.org/1999/xlink" x="0px" y="0px"
	 viewBox="0 0 146 38" style="enable-background:new 0 0 146 38;" xml:space="preserve">
<style type="text/css">
	.st0{fill:#409EFF;}
</style>
<title>Shape Copy</title>
<desc>Created with Sketch.</desc>
<path class="st0" d="M32.6,8.9L17.7,0.4c-0.6-0.3-1.3-0.3-1.9,0L1,8.9c-0.6,0.3-0.9,0.9-0.9,1.6l0,17c0,0.7,0.4,1.3,0.9,1.6
	l14.9,8.5c0.6,0.3,1.3,0.3,1.9,0l14.8-8.5c0.6-0.3,0.9-0.9,0.9-1.6l0-17C33.5,9.8,33.1,9.2,32.6,8.9z M5.4,24.3l7.3-6.6
	c0.1-0.1,0.1-0.3,0-0.4l-8.1-6.6c-0.2-0.1-0.1-0.4,0.2-0.4l4-0.2c0.1,0,0.1,0,0.2,0.1l6.2,5c0.1,0.1,0.2,0.1,0.3,0l4.8-4.4
	c0,0,0.1-0.1,0.2-0.1l4.4,0c0.2,0,0.3,0.3,0.2,0.4L10.1,24.7c0,0-0.1,0.1-0.2,0.1l-4.4,0C5.3,24.7,5.2,24.5,5.4,24.3z M28.8,27.9
	l-4,0c-0.1,0-0.1,0-0.2-0.1l-5.3-4.5c-0.1-0.1-0.2-0.1-0.3,0l-4.8,4.4c0,0-0.1,0.1-0.2,0.1l-4.4,0c-0.2,0-0.3-0.3-0.2-0.4l14.8-13.6
	c0,0,0.1-0.1,0.2-0.1l4.4,0c0.2,0,0.3,0.3,0.2,0.4l-7.2,6.6c-0.1,0.1-0.1,0.3,0,0.4l7.3,6.3C29.2,27.6,29.1,27.9,28.8,27.9z"/>
<g>
	<path class="st0" d="M49.6,22.7l-4,5.9h-3.9l5.9-8l-5.5-7.5h4.4l3.4,5.3l3.6-5.3h3.8l-5.5,7.5l5.9,8h-4.4L49.6,22.7z"/>
	<path class="st0" d="M66.3,22.7l-4,5.9h-3.9l5.9-8l-5.5-7.5h4.4l3.4,5.3l3.6-5.3H74l-5.5,7.5l5.9,8H70L66.3,22.7z"/>
	<path class="st0" d="M92.5,26.2v2.4h-7.1c-0.3,0-0.6,0-0.8,0.1c-0.2,0-0.4,0-0.5,0c-0.2,0.1-0.3,0.1-0.4,0.1
		c-5.2-0.1-7.9-2.7-8-7.9c0.1-5.2,2.8-8,8-8.1c5.1,0.2,7.8,2.9,8,8.1c-0.2,2.1-1,3.9-2.4,5.4c0.1,0,0.5,0,1-0.1c0.5,0,0.8,0,1.1-0.1
		H92.5z M83.7,26.5c2.8,0,4.2-1.9,4.2-5.6c0-3.8-1.4-5.7-4.2-5.7c-2.9,0-4.3,1.9-4.3,5.7C79.4,24.7,80.8,26.6,83.7,26.5z"/>
	<path class="st0" d="M100.9,22.7l-4,5.9H93l5.9-8l-5.5-7.5h4.4l3.4,5.3l3.6-5.3h3.8l-5.5,7.5l5.9,8h-4.4L100.9,22.7z"/>
	<path class="st0" d="M110.5,24.7v-2.5h11.2v2.5H110.5z"/>
	<path class="st0" d="M135.4,13.1h3.6v9.7c-0.2,3.9-2.6,5.8-7.2,5.9c-4.8-0.1-7.2-2.1-7.3-5.9v-9.7h3.6v8.5c-0.2,3.5,1,5.1,3.7,4.9
		c2.6,0.2,3.8-1.5,3.6-4.9V13.1z"/>
	<path class="st0" d="M145.8,13.1v15.5h-3.6V13.1H145.8z"/>
</g>
</svg>
